<svg width="19" height="17" viewBox="0 0 19 17" fill="none" xmlns="http://www.w3.org/2000/svg">
<path d="M17.2188 16.0209H1.78125C1.41382 16.0209 1.06143 15.8749 0.801615 15.6151C0.541799 15.3553 0.395836 15.0029 0.395836 14.6354V2.3646C0.395836 1.59985 1.0165 0.979187 1.78125 0.979187H17.2188C17.9835 0.979187 18.6042 1.59985 18.6042 2.3646V14.6354C18.6042 15.0029 18.4582 15.3553 18.1984 15.6151C17.9386 15.8749 17.5862 16.0209 17.2188 16.0209ZM1.78125 2.16669C1.72876 2.16669 1.67842 2.18754 1.6413 2.22466C1.60419 2.26177 1.58334 2.31211 1.58334 2.3646V14.6354C1.58334 14.7447 1.672 14.8334 1.78125 14.8334H4.29717L11.0833 7.69015C11.2106 7.55601 11.3635 7.44873 11.533 7.37465C11.7024 7.30057 11.885 7.26119 12.0699 7.25883C12.2549 7.25647 12.4384 7.29118 12.6097 7.36091C12.781 7.43063 12.9366 7.53397 13.0673 7.66481L17.4167 12.015V2.3646C17.4167 2.31211 17.3958 2.26177 17.3587 2.22466C17.3216 2.18754 17.2712 2.16669 17.2188 2.16669H1.78125ZM17.4167 14.6354V13.6934L12.2273 8.50477C12.2087 8.48604 12.1864 8.47127 12.1619 8.46134C12.1375 8.45141 12.1112 8.44653 12.0848 8.44698C12.0584 8.44711 12.0323 8.45257 12.0081 8.46305C11.9839 8.47352 11.962 8.48879 11.9439 8.50794L5.93513 14.8334H17.2188C17.2712 14.8334 17.3216 14.8125 17.3587 14.7754C17.3958 14.7383 17.4167 14.6879 17.4167 14.6354ZM8.3125 6.32294C8.3125 7.00532 8.04143 7.65975 7.55891 8.14226C7.0764 8.62478 6.42197 8.89585 5.73959 8.89585C5.05721 8.89585 4.40277 8.62478 3.92026 8.14226C3.43774 7.65975 3.16667 7.00532 3.16667 6.32294C3.16667 5.64056 3.43774 4.98613 3.92026 4.50361C4.40277 4.02109 5.05721 3.75002 5.73959 3.75002C6.42197 3.75002 7.0764 4.02109 7.55891 4.50361C8.04143 4.98613 8.3125 5.64056 8.3125 6.32294ZM7.125 6.32294C7.12495 6.14095 7.08905 5.96075 7.01936 5.79264C6.94967 5.62453 6.84755 5.47178 6.71883 5.34314C6.59011 5.21449 6.43731 5.11245 6.26915 5.04286C6.101 4.97326 5.92078 4.93747 5.73879 4.93752C5.55681 4.93757 5.37661 4.97347 5.2085 5.04316C5.04038 5.11285 4.88764 5.21497 4.75899 5.3437C4.63034 5.47242 4.52831 5.62522 4.45871 5.79337C4.38912 5.96153 4.35333 6.14174 4.35338 6.32373C4.35348 6.69127 4.49959 7.04371 4.75955 7.30353C5.01952 7.56335 5.37205 7.70925 5.73959 7.70915C6.10713 7.70904 6.45957 7.56293 6.71939 7.30297C6.9792 7.04301 7.12511 6.69048 7.125 6.32294Z" fill="black"/>
</svg>
