<svg width="27" height="27" viewBox="0 0 27 27" fill="none" xmlns="http://www.w3.org/2000/svg">
<path d="M13.5 14.625C12.8655 14.625 12.3319 14.4086 11.8991 13.9759C11.4664 13.5431 11.25 13.0095 11.25 12.375V5.625C11.25 4.9905 11.4664 4.45687 11.8991 4.02412C12.3319 3.59137 12.8655 3.375 13.5 3.375C14.1345 3.375 14.6681 3.59137 15.1009 4.02412C15.5336 4.45687 15.75 4.9905 15.75 5.625V12.375C15.75 13.0095 15.5336 13.5431 15.1009 13.9759C14.6681 14.4086 14.1345 14.625 13.5 14.625ZM12.9375 23.0625V19.1059C11.175 18.9439 9.70312 18.2235 8.52187 16.9447C7.34062 15.6653 6.75 14.142 6.75 12.375H7.875C7.875 13.9312 8.42363 15.258 9.52088 16.3553C10.6181 17.4525 11.9445 18.0007 13.5 18C15.0562 18 16.383 17.4514 17.4803 16.3541C18.5775 15.2569 19.1257 13.9305 19.125 12.375H20.25C20.25 14.142 19.6594 15.6653 18.4781 16.9447C17.2969 18.2242 15.825 18.9443 14.0625 19.1048V23.0625H12.9375ZM13.5 13.5C13.8187 13.5 14.0861 13.392 14.3021 13.176C14.5181 12.96 14.6258 12.693 14.625 12.375V5.625C14.625 5.30625 14.517 5.03925 14.301 4.824C14.085 4.60875 13.818 4.50075 13.5 4.5C13.1813 4.5 12.9142 4.608 12.699 4.824C12.4838 5.04 12.3758 5.307 12.375 5.625V12.375C12.375 12.6938 12.483 12.9611 12.699 13.1771C12.915 13.3931 13.182 13.5007 13.5 13.5Z" fill="#767676"/>
</svg>
