<svg width="15" height="21" viewBox="0 0 15 21" fill="none" xmlns="http://www.w3.org/2000/svg">
<path d="M7.5 11.625C6.8655 11.625 6.33187 11.4086 5.89912 10.9759C5.46637 10.5431 5.25 10.0095 5.25 9.375V2.625C5.25 1.9905 5.46637 1.45687 5.89912 1.02412C6.33187 0.591375 6.8655 0.375 7.5 0.375C8.1345 0.375 8.66813 0.591375 9.10088 1.02412C9.53363 1.45687 9.75 1.9905 9.75 2.625V9.375C9.75 10.0095 9.53363 10.5431 9.10088 10.9759C8.66813 11.4086 8.1345 11.625 7.5 11.625ZM6.9375 20.0625V16.1059C5.175 15.9439 3.70312 15.2235 2.52187 13.9447C1.34062 12.6653 0.75 11.142 0.75 9.375H1.875C1.875 10.9312 2.42363 12.258 3.52088 13.3553C4.61813 14.4525 5.9445 15.0007 7.5 15C9.05625 15 10.383 14.4514 11.4803 13.3541C12.5775 12.2569 13.1257 10.9305 13.125 9.375H14.25C14.25 11.142 13.6594 12.6653 12.4781 13.9447C11.2969 15.2242 9.825 15.9443 8.0625 16.1048V20.0625H6.9375ZM7.5 10.5C7.81875 10.5 8.08613 10.392 8.30213 10.176C8.51813 9.96 8.62575 9.693 8.625 9.375V2.625C8.625 2.30625 8.517 2.03925 8.301 1.824C8.085 1.60875 7.818 1.50075 7.5 1.5C7.18125 1.5 6.91425 1.608 6.699 1.824C6.48375 2.04 6.37575 2.307 6.375 2.625V9.375C6.375 9.69375 6.483 9.96113 6.699 10.1771C6.915 10.3931 7.182 10.5007 7.5 10.5Z" fill="#FF1616"/>
</svg>
